# xmcd
#
# Track frame offsets:
#	150
#	5095
#	22869
#	42131
#	64301
#	88370
#	120531
#
# Disc length: 1820 seconds
#
# Revision: 1
# Processed by: cddbd v1.5.1PL2 Copyright (c) Steve Scherf et al.
# Submitted via: audiograbber 1.81.02
#
DISCID=55071a07
DTITLE=David Crowder Band - B Collision (www.gerth.de)
DYEAR=2006
DGENRE=Pop
TTITLE0=Intro (I've Had Enough)
TTITLE1=A Beautiful Collision - B Variant
TTITLE2=Wholly Yours - B Variant
TTITLE3=Everybody Wants To Go To Heaven (LP)
TTITLE4=I Can Here The Angels Singing (...Andeverandeverand...)
TTITLE5=Be Lifted
TTITLE6=I Saw The Light
EXTD=
EXTT0=
EXTT1=
EXTT2=
EXTT3=
EXTT4=
EXTT5=
EXTT6=
PLAYORDER=
